<svg viewBox="0 0 128 128" xmlns="http://www.w3.org/2000/svg">
    <rect width="128" height="128" fill="#11557c"/>
    <g transform="translate(20, 25)">
        <path fill="#ffffff" d="M10 15 L10 70 L15 70 L15 15 Z"/>
        <path fill="#ffffff" d="M25 35 L25 70 L30 70 L30 35 Z"/>
        <path fill="#ffffff" d="M40 25 L40 70 L45 70 L45 25 Z"/>
        <path fill="#ffffff" d="M55 45 L55 70 L60 70 L60 45 Z"/>
        <path fill="#ffffff" d="M70 20 L70 70 L75 70 L75 20 Z"/>
        <circle cx="12.5" cy="15" r="3" fill="#e97826"/>
        <circle cx="27.5" cy="35" r="3" fill="#e97826"/>
        <circle cx="42.5" cy="25" r="3" fill="#e97826"/>
        <circle cx="57.5" cy="45" r="3" fill="#e97826"/>
        <circle cx="72.5" cy="20" r="3" fill="#e97826"/>
        <path fill="none" stroke="#e97826" stroke-width="2" d="M12.5 15 L27.5 35 L42.5 25 L57.5 45 L72.5 20"/>
    </g>
</svg>
