<svg role="img" viewBox="0 0 24 24" xmlns="http://www.w3.org/2000/svg" fill="#013243">
  <path d="M10.315 4.876L6.3048 2.8918l-4.401 2.0736-.005 4.732 4.0166 2.7601 4.4001-2.0732zm2.3645 1.7397l4.6168 2.6201v5.2638l-4.6168-3.1718zm-6.7199-2.8125l3.2038 1.7784-3.2038 2.2093-3.415-2.3451zm7.4114 12.9683l-3.2126 1.839V14.674l3.2126 2.2117zm8.0541-4.2124l-3.8363-2.6388v-5.353l3.8363 2.2118zm-8.5073-8.9966l3.8452 2.1678-3.8452 2.6466-3.8539-2.2041zM6.622 14.135l-4.0009-2.7518V7.3441l4.0009 2.7634zm.0442 6.2274l4.0541-2.3228v4.6929l-4.0541-2.3701zm8.5115-12.314l4.4604 2.5281-4.4604 3.0692-4.4688-3.0713zm.0442 12.4741l4.0541 2.7861-4.0541 2.3701zm-7.9355-7.4034l3.9086 2.6842-3.9086 2.6928-3.917-2.6954zm8.0097-.0313l3.917 2.6954-3.917 2.6928-3.9086-2.6842zm7.8495 2.6328l-3.415 2.3461-3.203-1.7779 3.203-2.2088z"/>
</svg>
