<svg xmlns="http://www.w3.org/2000/svg" fill="none" viewBox="0 0 1120 160">
  <path fill="#000000" d="M0 0h32v32h-32zM96 0h32v32h-32zM0 32h32v32h-32zM32 32h32v32h-32zM96 32h32v32h-32zM0 64h32v32h-32zM64 64h32v32h-32zM96 64h32v32h-32zM0 96h32v32h-32zM96 96h32v32h-32zM0 128h32v32h-32zM96 128h32v32h-32zM192 0h32v32h-32zM224 0h32v32h-32zM256 0h32v32h-32zM160 32h32v32h-32zM192 64h32v32h-32zM224 64h32v32h-32zM256 96h32v32h-32zM160 128h32v32h-32zM192 128h32v32h-32zM224 128h32v32h-32zM320 0h32v32h-32zM352 0h32v32h-32zM384 0h32v32h-32zM320 32h32v32h-32zM416 32h32v32h-32zM320 64h32v32h-32zM352 64h32v32h-32zM384 64h32v32h-32zM320 96h32v32h-32zM384 96h32v32h-32zM320 128h32v32h-32zM416 128h32v32h-32zM512 32h32v32h-32zM544 32h32v32h-32zM576 64h32v32h-32zM512 96h32v32h-32zM544 96h32v32h-32zM576 96h32v32h-32zM480 128h32v32h-32zM576 128h32v32h-32zM640 32h32v32h-32zM768 32h32v32h-32zM640 64h32v32h-32zM768 64h32v32h-32zM640 96h32v32h-32zM704 96h32v32h-32zM768 96h32v32h-32zM640 128h32v32h-32zM672 128h32v32h-32zM736 128h32v32h-32zM768 128h32v32h-32zM864 32h32v32h-32zM896 32h32v32h-32zM928 64h32v32h-32zM864 96h32v32h-32zM896 96h32v32h-32zM928 96h32v32h-32zM832 128h32v32h-32zM928 128h32v32h-32zM1024 0h32v32h-32zM992 32h32v32h-32zM1024 32h32v32h-32zM1056 32h32v32h-32zM1024 64h32v32h-32zM1024 96h32v32h-32zM1024 128h32v32h-32zM1056 128h32v32h-32z"/>
</svg>
