<svg role="img" viewBox="0 0 24 24" xmlns="http://www.w3.org/2000/svg" fill="#000000">
  <path d="M7.833 6.666v-.055c0-1-.667-1.5-1.778-1.5H4.389v3.055h1.723c1.111 0 1.721-.666 1.721-1.5zM0 0v24h24V0H0zm2.223 3.167h4c2.389 0 3.833 1.389 3.833 3.445v.055c0 2.278-1.778 3.5-4.001 3.5H4.389v2.945H2.223V3.167zM11.277 21.5h9V23h-9v-1.5zm-4.166-8.389L9.556 10.5h2.334v.056l-2.723 2.666 2.723 2.723v.055h-2.5l-2.278-2.889zm7.778-10.111H17c2.5 0 4.945 1.111 4.945 4.334v.055c0 2.889-2.278 4.278-4.834 4.278h-2.222V3z"/>
</svg>
